inDegrees=no
num_controls=7
num_derivatives=13
num_iterations=116
num_multipliers=7
num_parameters=0
num_slacks=7
num_states=26
objective=0.431109
objective_accelerations=0.050520
objective_balance=0.006883
objective_effort=0.031409
objective_height=0.341134
objective_ligament=0.001162
solver_duration=1484.469379
status=Solve_Succeeded
success=true
DataType=double
version=3
OpenSimVersion=4.5
endheader
time	/jointset/ground_pelvis/pelvis_tilt/value	/jointset/ground_pelvis/pelvis_tx/value	/jointset/ground_pelvis/pelvis_ty/value	/jointset/hip_l/hip_flexion_l/value	/jointset/hip_l/hip_adduction_l/value	/jointset/hip_l/hip_rotation_l/value	/jointset/back/lumbar_extension/value	/jointset/patellofemoral_l/patellar_flexion_l/value	/jointset/knee_l/knee_flexion_l/value	/jointset/knee_l/knee_adduction_l/value	/jointset/knee_l/knee_rotation_l/value	/jointset/ankle_l/ankle_angle_l/value	/jointset/subtalar_l/subtalar_angle_l/value	/jointset/ground_pelvis/pelvis_tilt/speed	/jointset/ground_pelvis/pelvis_tx/speed	/jointset/ground_pelvis/pelvis_ty/speed	/jointset/hip_l/hip_flexion_l/speed	/jointset/hip_l/hip_adduction_l/speed	/jointset/hip_l/hip_rotation_l/speed	/jointset/back/lumbar_extension/speed	/jointset/patellofemoral_l/patellar_flexion_l/speed	/jointset/knee_l/knee_flexion_l/speed	/jointset/knee_l/knee_adduction_l/speed	/jointset/knee_l/knee_rotation_l/speed	/jointset/ankle_l/ankle_angle_l/speed	/jointset/subtalar_l/subtalar_angle_l/speed	/forceset/tau_hip_flexion_l	/forceset/tau_hip_adduction_l	/forceset/tau_hip_rotation_l	/forceset/tau_knee_flexion_l	/forceset/tau_ankle_angle_l	/forceset/tau_subtalar_angle_l	/forceset/tau_lumbar_extension	lambda_cid13_p0	lambda_cid13_p1	lambda_cid13_p2	lambda_cid13_p3	lambda_cid13_p4	lambda_cid13_p5	lambda_cid14_p0	/jointset/ground_pelvis/pelvis_tilt/accel	/jointset/ground_pelvis/pelvis_tx/accel	/jointset/ground_pelvis/pelvis_ty/accel	/jointset/hip_l/hip_flexion_l/accel	/jointset/hip_l/hip_adduction_l/accel	/jointset/hip_l/hip_rotation_l/accel	/jointset/back/lumbar_extension/accel	/jointset/patellofemoral_l/patellar_flexion_l/accel	/jointset/knee_l/knee_flexion_l/accel	/jointset/knee_l/knee_adduction_l/accel	/jointset/knee_l/knee_rotation_l/accel	/jointset/ankle_l/ankle_angle_l/accel	/jointset/subtalar_l/subtalar_angle_l/accel	gamma_cid13_p0	gamma_cid13_p1	gamma_cid13_p2	gamma_cid13_p3	gamma_cid13_p4	gamma_cid13_p5	gamma_cid14_p0
1.5	-0.3383736533191744	-0.03188273077076197	0.7639873751581429	1.178229361549447	-0.3048125992727548	0.01302850294054955	-0.3393786356838053	0.821405261885808	0.8214052618858196	-0.1735650457404752	0.1663676093955222	0.1634751119733798	-0.01936394765059229	0.4311797804194999	0.1556856694944976	0.5069819478413565	-2.101773020243457	-0.01389887415688281	-0.6939644775334783	0.5662293841678424	-2.094862381252806	-2.094862381252788	0.005451853719722391	-0.04608823397159145	-0.5467321682400269	-0.1057409863374807	-0.1951004099307278	0.02544821740929709	-0.02566761690020599	-0.2539393440984531	0.09757230993470392	0.03454458894261252	0.1931586775748033	-6.984612698207679	-16.2233830367866	4.975237346447887	-1.546304274040319	-607.0914095031038	-54.65636435126461	-20.19836933515927	0.5197273786526967	0.5375625907848066	-0.4131118198021344	-1.325502172138023	0.6723192683700324	-0.3601883138527274	1.618178680528295	-1.34857372636809	-1.348573726368075	0.05980997398475642	-0.09418361232417916	-0.5664649459782046	0.6925553583464876	3.972687732042831e-07	3.332374842699885e-07	-2.548817455448049e-06	-2.840776979647794e-07	4.684600926429818e-07	2.164264034557448e-07	3.894790418296349e-07
1.51	-0.3340360030272116	-0.03029905602992682	0.7690355708432455	1.157147230493571	-0.3049189678388616	0.006073867417570999	-0.333636333009804	0.800391353877959	0.8003913538778796	-0.1735113346501833	0.1659017121297462	0.1579799611755637	-0.02038802804805712	0.4362952126340956	0.1610384552728497	0.5025582204156831	-2.114384562684441	-0.007349357695361918	-0.6968853151645356	0.5821820877810369	-2.10763443948921	-2.107634439489198	0.005298073152332063	-0.04708576595987379	-0.5521963123709679	-0.09904972100939612	-0.1892565111768513	0.02508229858412333	-0.02551271563112931	-0.2509986240305928	0.09906666411036577	0.03434362251648659	0.1883142693549658	-6.294532518178082	-16.35693288884206	5.110753643676685	-1.812882359508365	-603.0635173376498	-54.86714079347718	-21.47781821259896	0.499229670106666	0.5324540729137157	-0.4717441589739115	-1.188634604011026	0.6504511978844436	-0.2460529364409264	1.576456773995962	-1.198889828133231	-1.198889828134202	-0.05185215627631349	-0.10118517940853	-0.5211532533022871	0.6614630945992319	4.287562475191103e-07	4.209956764830193e-07	-2.663606209827943e-06	-2.9124836488554e-07	5.036628093935976e-07	3.065758694957123e-07	4.131870010209397e-07
1.52	-0.3296488427076541	-0.02866218993099747	0.7740365810630866	1.135947053148498	-0.304959004567785	-0.0009075807714601131	-0.3277359751852145	0.7792582516965756	0.7792582516964028	-0.1734589373824	0.1654261101066218	0.152433216115108	-0.02134438559732913	0.4410817859384391	0.166323941113336	0.4975448547890367	-2.125382278082727	-0.0006325067201866008	-0.6993270107439419	0.5978404142854696	-2.118701215959881	-2.118701215959875	0.005189089217926551	-0.04802918544128749	-0.5570510207679187	-0.09219641669891919	-0.183412612422975	0.02471637975894841	-0.02535781436204866	-0.2480579039627342	0.1005610182860266	0.03414265609035926	0.183469861135129	-5.609347883479935	-16.49188520384659	5.24907658754031	-2.097404888555033	-599.1357134387628	-55.16590694380034	-22.75194751629947	0.4539555966022621	0.5241026032116215	-0.5310394599967042	-1.002736763598716	0.705786171100915	-0.2643599035225863	1.559303258775929	-1.007517373221434	-1.007517373221431	0.06876930058171876	-0.08336111095044825	-0.4445777991801899	0.7249631548249539	4.79749025767198e-07	4.94478481434327e-07	-2.890699829485057e-06	-3.15557934153682e-07	5.596176411740443e-07	4.070197713496998e-07	4.516482979390465e-07
1.53	-0.325215420220364	-0.02697283977828567	0.7789845870034875	1.114644783556099	-0.3049314102798994	-0.007910548430164295	-0.3216807053106914	0.7580228247476734	0.7580228247476409	-0.173408266511595	0.1649411287053353	0.1468408801160657	-0.02223183799702583	0.4455420415501459	0.1715310315663347	0.4919628914115052	-2.13479324078645	0.006172249215817379	-0.7011920561249966	0.6131549618415899	-2.128088262976864	-2.128088262976918	0.004960189253907486	-0.0489584638426077	-0.5613066655573307	-0.0852728655050332	-0.1774699009984649	0.0242136150380536	-0.02514193089789194	-0.2452840953795531	0.1022254732858583	0.03370083728779311	0.1785317563637285	-4.882818525381013	-16.52066600266291	5.360409254156175	-2.36248041493141	-595.2955297868471	-55.31447412684185	-24.01885937817495	0.4330117223366729	0.5166774187880629	-0.5856551823285358	-0.8684473620221558	0.671405096393128	-0.1359256771332163	1.50874068738622	-0.8600186928316188	-0.8600186928403374	-0.06651984411509254	-0.09575003545245669	-0.399646274011243	0.679538507114557	5.514661894443747e-07	5.52793687420054e-07	-3.237117368499219e-06	-3.580775871659166e-07	6.376215951736857e-07	5.184015112560834e-07	5.057850161918804e-07
1.54	-0.3207392049411803	-0.02523188569055506	0.7838739972289736	1.093256770069009	-0.3048350514743453	-0.01492983630702644	-0.315474047923936	0.7367023832632236	0.7367023832633286	-0.1733594446802746	0.1644472467538889	0.1412092699780912	-0.02304935740369484	0.4496403443171254	0.1766447281170979	0.485825711806073	-2.142531057020696	0.01312039681354225	-0.7025910543755041	0.6281179167319573	-2.135704123069641	-2.135704123069752	0.004819281321033858	-0.0498092954731145	-0.5649058485543237	-0.07820981809338089	-0.1715271895739552	0.02371085031715791	-0.0249260474337376	-0.2425102867963728	0.1038899282856891	0.03325901848522583	0.1735936515923284	-4.159302423722542	-16.55299867870517	5.476970361520564	-2.659413111652734	-591.5338882810515	-55.56870940319424	-25.27729208777831	0.3815650276568007	0.5054238227645148	-0.6420827055768242	-0.6681074697030321	0.7344645034450931	-0.1711504774131642	1.488984725625361	-0.6532799883800642	-0.6532799883800416	0.0863677068108062	-0.06767175678776551	-0.3132854406963651	0.7528623983782159	5.865863447453178e-07	6.863533340433894e-07	-3.364666705878318e-06	-3.639589545090619e-07	6.86222206107637e-07	6.348750703190797e-07	5.343653732072512e-07
